# xmcd CD database file
#
# Track frame offsets:
#	150
#	22740
#	37976
#	56960
#	74704
#	98374
#	119576
#	134936
#	169568
#	203305
#	223681
#	243303
#	258521
#	280359
#
# Disc length: 4047 seconds
#
# Revision: 0
# Processed by: cddbd v1.4PL0 Copyright (c) Steve Scherf et al.
# Submitted via: CDex 1.51
#
DISCID=cf0fcd0e
DTITLE=The Mike Hennessey Chastet - Shades Of Chas Burchell
DYEAR=1993
DGENRE=Jazz
TTITLE0=Juicy Lucy
TTITLE1=Bobblin'
TTITLE2=Gone Into It
TTITLE3=Have You Met Miss Jones
TTITLE4=It's You Or No One - Shades
TTITLE5=Marsh Bars
TTITLE6=Which Way
TTITLE7=Just Squeeze Me
TTITLE8=Blue Monk
TTITLE9=Tickle Toe
TTITLE10=Comeback
TTITLE11=Sometimes
TTITLE12=Sonnymoon For Two
TTITLE13=Solea
EXTD=YEAR: 1993
EXTT0=
EXTT1=
EXTT2=
EXTT3=
EXTT4=
EXTT5=
EXTT6=
EXTT7=
EXTT8=
EXTT9=
EXTT10=
EXTT11=
EXTT12=
EXTT13=
PLAYORDER=
